#N canvas 684 203 1600 890 12;
#X declare -lib Gem;
#N canvas 0 22 450 278 (subpatch) 0;
#X array audioData 541184 float 2;
#X coords 0 1 541184 -1 200 140 1;
#X restore 309 73 graph;
#X obj 62 111 soundfiler;
#X msg 63 78 read -resize \$1 audioData;
#X obj 63 46 openpanel;
#X obj 64 9 bng 15 250 50 0 empty empty empty 17 7 0 10 -262144 -1
-1;
#X floatatom 60 160 8 0 0 0 - - -;
#X obj 874 496 tabread4~ audioData;
#X obj 916 591 *~;
#X obj 960 627 dac~;
#X obj 874 469 vline~;
#X msg 874 438 \$1 \, \$2 \$3;
#X obj 861 285 bng 15 250 50 0 empty empty empty 17 7 0 10 -262144
-1 -1;
#X obj 875 406 pack f f f;
#X obj 919 369 r end;
#X obj 69 199 s end;
#X obj 292 238 hsl 200 15 0 541184 0 0 empty empty empty -2 -8 0 10
-204786 -1 -1 11100 1;
#X msg 147 192 range 0 \$1;
#X obj 291 265 s start;
#X obj 874 358 f;
#X msg 957 443 stop;
#X obj 1012 418 r start;
#X floatatom 975 364 8 0 0 0 - - -;
#X obj 295 293 hsl 200 15 0 541184 0 0 empty empty empty -2 -8 0 10
-261234 -1 -1 6600 1;
#X obj 293 317 s end;
#X obj 1078 416 r end;
#X floatatom 286 383 5 0 0 0 - - -;
#X obj 343 382 hsl 128 15 100 10000 1 0 empty empty LP_Cutoff -2 -8
0 10 -260097 -1 -1 0 1;
#X obj 858 552 lop~ 1000;
#X msg 1008 446 \$1 90;
#X obj 928 320 expr abs($f2 - $f1) / 43.1;
#X obj 1093 489 tabread4~ audioData;
#X obj 1042 586 *~;
#X floatatom 236 412 5 0 1 0 - - -;
#X obj 1018 631 dac~;
#X obj 1134 450 vline~;
#X msg 1134 410 \$1 \, \$2 \$3;
#X obj 1135 378 pack f f f;
#X obj 1179 341 r end;
#X obj 1131 239 r end;
#X obj 953 245 r start;
#X obj 1134 330 f;
#X msg 1217 415 stop;
#X obj 1272 390 r start;
#X floatatom 1235 336 8 0 0 0 - - -;
#X obj 1338 388 r end;
#X floatatom 283 357 5 0 0 0 - - -;
#X obj 342 347 hsl 128 15 100 10000 1 0 empty empty HP_Cutoff -2 -8
0 10 -257985 -1 -1 0 1;
#X msg 1268 418 \$1 90;
#X obj 1212 294 expr abs($f2 - $f1) / 43.1;
#X obj 1021 536 hip~ 1000;
#X obj 296 414 hsl 128 15 0 1 0 0 empty empty empty -2 -8 0 10 -4032
-1 -1 5800 1;
#X obj 296 443 hsl 128 15 0 1 0 0 empty empty empty -2 -8 0 10 -4032
-1 -1 3000 1;
#X floatatom 236 441 5 0 1 0 - - -;
#X obj 530 253 vu 15 120 empty empty -1 -8 0 10 -66577 -1 1 0;
#X obj 873 635 s~ toVU1;
#X obj 527 128 r~ toVU1;
#X obj 526 168 env~;
#X obj 526 204 - 100;
#X obj 1111 608 s~ toVU2;
#X obj 600 253 vu 15 120 empty empty -1 -8 0 10 -66577 -1 1 0;
#X obj 596 168 env~;
#X obj 596 204 - 100;
#X obj 597 128 r~ toVU2;
#X obj 888 911 gemwin;
#X obj 943 890 tgl 15 0 empty empty empty 17 7 0 10 -262144 -1 -1 0
1;
#X obj 911 674 tgl 15 0 empty empty empty 17 7 0 10 -262144 -1 -1 0
1;
#X obj 1034 694 openpanel;
#X obj 1049 670 bng 15 250 50 0 empty empty empty 17 7 0 10 -262144
-1 -1;
#X msg 1037 733 open \$1;
#X obj 162 18 declare -lib Gem;
#X obj 999 766 pix_film;
#X obj 1027 806 unpack f f f;
#X floatatom 1028 846 5 0 0 0 - - -;
#X floatatom 1077 845 5 0 0 0 - - -;
#X floatatom 1126 845 5 0 0 0 - - -;
#X obj 994 886 pix_texture;
#X obj 1112 710 tgl 15 0 empty empty empty 17 7 0 10 -262144 -1 -1
0 1;
#X msg 1110 738 auto \$1;
#X obj 991 924 rectangle 6 4;
#X msg 890 837 create;
#X msg 907 863 destroy;
#X obj 949 709 gemhead;
#X obj 294 479 bng 20 250 50 0 empty empty EXTRA_BASS 25 10 0 10 -258113
-1 -1;
#X msg 208 500 32;
#X obj 186 404 s v2;
#X obj 188 437 s v1;
#X obj 964 564 r v1;
#X obj 1092 560 r v2;
#X obj 192 471 s e1;
#X obj 231 358 r e1;
#X obj 234 333 s h;
#X obj 1108 516 r h;
#X obj 235 386 s lp;
#X obj 948 528 r lp;
#X msg 245 471 1;
#N canvas 583 526 1745 954 botLeft 0;
#X obj 740 62 gemmouse 1 1;
#X obj 638 89 * 8;
#X obj 638 113 - 4;
#X obj 638 137 -;
#X obj 638 170 abs;
#X obj 638 194 < 0.2;
#X obj 801 91 * -8;
#X obj 801 115 + 4;
#X obj 801 139 -;
#X obj 801 171 abs;
#X obj 801 195 < 0.2;
#X obj 801 266 trigger b f;
#X obj 740 308 &&;
#X obj 699 353 trigger f f;
#X obj 659 403 spigot;
#X obj 659 437 trigger f f;
#X obj 753 471 tgl 15 0 empty empty empty 17 7 0 10 -262144 -1 -1 0
1;
#X obj 693 507 tgl 15 0 empty empty empty 17 7 0 10 -262144 -1 -1 0
1;
#X obj 659 473 select 1;
#X obj 352 156 translateXYZ;
#X obj 351 195 rectangle 0.5 1;
#X obj 356 291 translateXYZ;
#X floatatom 471 264 5 0 0 0 - - -;
#X obj 354 234 separator;
#X obj 356 326 color 0 0 0;
#X obj 352 417 translateXYZ;
#X floatatom 467 390 5 0 0 0 - - -;
#X obj 352 452 color 0 0 0;
#X obj 356 357 circle 0.3;
#X obj 349 477 circle 0.3;
#X msg 473 233 0.5;
#X msg 466 358 -1;
#X floatatom 351 618 5 0 0 0 - - -;
#X floatatom 441 619 5 0 0 0 - - -;
#X msg 352 581 -2.75;
#X msg 438 577 -2.74;
#X obj 380 105 r xBotLeft;
#X obj 456 105 r yBotLeft;
#X obj 351 641 s xBotLeft;
#X obj 436 642 s yBotLeft;
#X obj 689 102 r xBotLeft;
#X obj 849 91 s bBotLeft;
#X obj 845 115 r yBotLeft;
#X obj 564 303 r bBotLeft;
#X obj 700 559 outlet;
#X obj 347 38 gemhead;
#X connect 0 0 1 0;
#X connect 0 1 6 0;
#X connect 0 2 41 0;
#X connect 1 0 2 0;
#X connect 2 0 3 0;
#X connect 3 0 4 0;
#X connect 4 0 5 0;
#X connect 5 0 12 0;
#X connect 6 0 7 0;
#X connect 7 0 8 0;
#X connect 8 0 9 0;
#X connect 9 0 10 0;
#X connect 10 0 11 0;
#X connect 11 0 12 0;
#X connect 11 1 12 1;
#X connect 12 0 13 0;
#X connect 13 0 14 1;
#X connect 14 0 15 0;
#X connect 15 0 18 0;
#X connect 15 1 16 0;
#X connect 17 0 44 0;
#X connect 18 0 17 0;
#X connect 19 0 20 0;
#X connect 20 0 23 0;
#X connect 21 0 24 0;
#X connect 22 0 21 2;
#X connect 23 0 21 0;
#X connect 24 0 28 0;
#X connect 25 0 27 0;
#X connect 26 0 25 2;
#X connect 27 0 29 0;
#X connect 28 0 25 0;
#X connect 30 0 22 0;
#X connect 31 0 26 0;
#X connect 32 0 38 0;
#X connect 33 0 39 0;
#X connect 34 0 32 0;
#X connect 35 0 33 0;
#X connect 36 0 19 1;
#X connect 37 0 19 2;
#X connect 40 0 3 1;
#X connect 42 0 8 1;
#X connect 43 0 14 0;
#X connect 45 0 19 0;
#X restore 766 243 pd botLeft;
#N canvas 668 636 1664 1298 BotRight 0;
#X obj 687 718 outlet;
#X obj 771 106 gemmouse 1 1;
#X obj 669 133 * 8;
#X obj 669 157 - 4;
#X obj 669 181 -;
#X obj 669 214 abs;
#X obj 669 238 < 0.2;
#X obj 832 135 * -8;
#X obj 832 159 + 4;
#X obj 832 183 -;
#X obj 832 215 abs;
#X obj 832 239 < 0.2;
#X obj 832 310 trigger b f;
#X obj 771 352 &&;
#X obj 730 397 trigger f f;
#X obj 690 447 spigot;
#X obj 690 481 trigger f f;
#X obj 784 515 tgl 15 0 empty empty empty 17 7 0 10 -262144 -1 -1 0
1;
#X obj 724 551 tgl 15 0 empty empty empty 17 7 0 10 -262144 -1 -1 1
1;
#X obj 690 517 select 1;
#X obj 383 200 translateXYZ;
#X obj 382 239 rectangle 0.5 1;
#X obj 387 335 translateXYZ;
#X floatatom 502 308 5 0 0 0 - - -;
#X obj 385 278 separator;
#X obj 387 370 color 0 0 0;
#X obj 383 461 translateXYZ;
#X floatatom 498 434 5 0 0 0 - - -;
#X obj 383 496 color 0 0 0;
#X obj 387 401 circle 0.3;
#X obj 380 521 circle 0.3;
#X msg 504 277 0.5;
#X msg 497 402 -1;
#X floatatom 382 662 5 0 0 0 - - -;
#X floatatom 472 663 5 0 0 0 - - -;
#X msg 469 621 -2.74;
#X text 734 78 Bottom Left Speaker;
#X obj 411 149 r xBotRight;
#X obj 502 149 r yBotRight;
#X obj 382 685 s xBotRight;
#X obj 467 686 s yBotRight;
#X obj 720 146 r xBotRight;
#X obj 880 135 s bBotRight;
#X obj 876 159 r yBotRight;
#X obj 595 347 r bBotRight;
#X msg 383 625 2.75;
#X obj 367 109 Gemhead;
#X connect 1 0 2 0;
#X connect 1 1 7 0;
#X connect 1 2 42 0;
#X connect 2 0 3 0;
#X connect 3 0 4 0;
#X connect 4 0 5 0;
#X connect 5 0 6 0;
#X connect 6 0 13 0;
#X connect 7 0 8 0;
#X connect 8 0 9 0;
#X connect 9 0 10 0;
#X connect 10 0 11 0;
#X connect 11 0 12 0;
#X connect 12 0 13 0;
#X connect 12 1 13 1;
#X connect 13 0 14 0;
#X connect 14 0 15 1;
#X connect 15 0 16 0;
#X connect 16 0 19 0;
#X connect 16 1 17 0;
#X connect 18 0 0 0;
#X connect 19 0 18 0;
#X connect 20 0 21 0;
#X connect 21 0 24 0;
#X connect 22 0 25 0;
#X connect 23 0 22 2;
#X connect 24 0 22 0;
#X connect 25 0 29 0;
#X connect 26 0 28 0;
#X connect 27 0 26 2;
#X connect 28 0 30 0;
#X connect 29 0 26 0;
#X connect 31 0 23 0;
#X connect 32 0 27 0;
#X connect 33 0 39 0;
#X connect 34 0 40 0;
#X connect 35 0 34 0;
#X connect 37 0 20 1;
#X connect 38 0 20 2;
#X connect 41 0 4 1;
#X connect 43 0 9 1;
#X connect 44 0 15 0;
#X connect 45 0 33 0;
#X connect 46 0 20 0;
#X restore 858 243 pd BotRight;
#N canvas 0 50 1346 865 midLeft 0;
#X obj 513 87 gemmouse 1 1;
#X obj 411 114 * 8;
#X obj 411 138 - 4;
#X obj 411 162 -;
#X obj 411 195 abs;
#X obj 411 219 < 0.2;
#X obj 574 116 * -8;
#X obj 574 140 + 4;
#X obj 574 164 -;
#X obj 574 196 abs;
#X obj 574 220 < 0.2;
#X obj 574 291 trigger b f;
#X obj 513 333 &&;
#X obj 472 378 trigger f f;
#X obj 432 428 spigot;
#X obj 432 462 trigger f f;
#X obj 526 496 tgl 15 0 empty empty empty 17 7 0 10 -262144 -1 -1 0
1;
#X obj 466 532 tgl 15 0 empty empty empty 17 7 0 10 -262144 -1 -1 1
1;
#X obj 432 498 select 1;
#X obj 121 104 gemhead;
#X obj 125 181 translateXYZ;
#X obj 124 220 rectangle 0.5 1;
#X obj 129 316 translateXYZ;
#X floatatom 244 289 5 0 0 0 - - -;
#X obj 127 259 separator;
#X obj 129 351 color 0 0 0;
#X obj 125 442 translateXYZ;
#X floatatom 240 415 5 0 0 0 - - -;
#X obj 125 477 color 0 0 0;
#X obj 129 382 circle 0.3;
#X obj 122 502 circle 0.3;
#X msg 246 258 0.5;
#X msg 239 383 -1;
#X floatatom 124 643 5 0 0 0 - - -;
#X floatatom 208 639 5 0 0 0 - - -;
#X obj 124 666 s xMidLeft;
#X obj 209 667 s yMidLeft;
#X obj 153 130 r xMidLeft;
#X obj 229 130 r yMidLeft;
#X obj 462 127 r xMidLeft;
#X obj 622 116 s bMidLeft;
#X obj 337 328 r bMidLeft;
#X obj 618 140 r yMidLeft;
#X text 476 59 Mid Left Speaker;
#X msg 125 606 -2.75;
#X obj 511 609 outlet;
#X connect 0 0 1 0;
#X connect 0 1 6 0;
#X connect 0 2 40 0;
#X connect 1 0 2 0;
#X connect 2 0 3 0;
#X connect 3 0 4 0;
#X connect 4 0 5 0;
#X connect 5 0 12 0;
#X connect 6 0 7 0;
#X connect 7 0 8 0;
#X connect 8 0 9 0;
#X connect 9 0 10 0;
#X connect 10 0 11 0;
#X connect 11 0 12 0;
#X connect 11 1 12 1;
#X connect 12 0 13 0;
#X connect 13 0 14 1;
#X connect 14 0 15 0;
#X connect 15 0 18 0;
#X connect 15 1 16 0;
#X connect 17 0 45 0;
#X connect 18 0 17 0;
#X connect 19 0 20 0;
#X connect 20 0 21 0;
#X connect 21 0 24 0;
#X connect 22 0 25 0;
#X connect 23 0 22 2;
#X connect 24 0 22 0;
#X connect 25 0 29 0;
#X connect 26 0 28 0;
#X connect 27 0 26 2;
#X connect 28 0 30 0;
#X connect 29 0 26 0;
#X connect 31 0 23 0;
#X connect 32 0 27 0;
#X connect 33 0 35 0;
#X connect 34 0 36 0;
#X connect 37 0 20 1;
#X connect 38 0 20 2;
#X connect 39 0 3 1;
#X connect 41 0 14 0;
#X connect 42 0 8 1;
#X connect 44 0 33 0;
#X restore 764 206 pd midLeft;
#N canvas 0 50 1960 1028 midRight 0;
#X obj 499 54 gemmouse 1 1;
#X obj 397 81 * 8;
#X obj 397 105 - 4;
#X obj 397 129 -;
#X obj 397 162 abs;
#X obj 397 186 < 0.2;
#X obj 560 83 * -8;
#X obj 560 107 + 4;
#X obj 560 131 -;
#X obj 560 163 abs;
#X obj 560 187 < 0.2;
#X obj 560 258 trigger b f;
#X obj 499 300 &&;
#X obj 458 345 trigger f f;
#X obj 418 395 spigot;
#X obj 418 429 trigger f f;
#X obj 512 463 tgl 15 0 empty empty empty 17 7 0 10 -262144 -1 -1 0
1;
#X obj 452 499 tgl 15 0 empty empty empty 17 7 0 10 -262144 -1 -1 1
1;
#X obj 418 465 select 1;
#X obj 107 71 gemhead;
#X obj 111 148 translateXYZ;
#X obj 110 187 rectangle 0.5 1;
#X obj 115 283 translateXYZ;
#X floatatom 230 256 5 0 0 0 - - -;
#X obj 113 226 separator;
#X obj 115 318 color 0 0 0;
#X obj 111 409 translateXYZ;
#X floatatom 226 382 5 0 0 0 - - -;
#X obj 111 444 color 0 0 0;
#X obj 115 349 circle 0.3;
#X obj 108 469 circle 0.3;
#X msg 232 225 0.5;
#X msg 225 350 -1;
#X floatatom 110 610 5 0 0 0 - - -;
#X floatatom 200 611 5 0 0 0 - - -;
#X text 462 26 Mid Left Speaker;
#X msg 111 573 2.75;
#X obj 139 97 r xMidRight;
#X obj 223 97 r yMidRight;
#X obj 110 633 s xMidRight;
#X obj 195 634 s yMidRight;
#X obj 448 94 r xMidRight;
#X obj 608 83 s bMidRight;
#X obj 604 107 r yMidRight;
#X obj 323 295 r bMidRight;
#X obj 462 545 outlet;
#X connect 0 0 1 0;
#X connect 0 1 6 0;
#X connect 0 2 42 0;
#X connect 1 0 2 0;
#X connect 2 0 3 0;
#X connect 3 0 4 0;
#X connect 4 0 5 0;
#X connect 5 0 12 0;
#X connect 6 0 7 0;
#X connect 7 0 8 0;
#X connect 8 0 9 0;
#X connect 9 0 10 0;
#X connect 10 0 11 0;
#X connect 11 0 12 0;
#X connect 11 1 12 1;
#X connect 12 0 13 0;
#X connect 13 0 14 1;
#X connect 14 0 15 0;
#X connect 15 0 18 0;
#X connect 15 1 16 0;
#X connect 17 0 45 0;
#X connect 18 0 17 0;
#X connect 19 0 20 0;
#X connect 20 0 21 0;
#X connect 21 0 24 0;
#X connect 22 0 25 0;
#X connect 23 0 22 2;
#X connect 24 0 22 0;
#X connect 25 0 29 0;
#X connect 26 0 28 0;
#X connect 27 0 26 2;
#X connect 28 0 30 0;
#X connect 29 0 26 0;
#X connect 31 0 23 0;
#X connect 32 0 27 0;
#X connect 33 0 39 0;
#X connect 34 0 40 0;
#X connect 36 0 33 0;
#X connect 37 0 20 1;
#X connect 38 0 20 2;
#X connect 41 0 3 1;
#X connect 43 0 8 1;
#X connect 44 0 14 0;
#X restore 859 206 pd midRight;
#N canvas 0 50 1627 1105 topLeft 0;
#X obj 441 158 gemmouse 1 1;
#X obj 339 185 * 8;
#X obj 339 209 - 4;
#X obj 339 233 -;
#X obj 339 266 abs;
#X obj 339 290 < 0.2;
#X obj 502 187 * -8;
#X obj 502 211 + 4;
#X obj 502 235 -;
#X obj 502 267 abs;
#X obj 502 291 < 0.2;
#X obj 502 362 trigger b f;
#X obj 441 404 &&;
#X obj 400 449 trigger f f;
#X obj 360 499 spigot;
#X obj 360 533 trigger f f;
#X obj 454 567 tgl 15 0 empty empty empty 17 7 0 10 -262144 -1 -1 0
1;
#X obj 394 603 tgl 15 0 empty empty empty 17 7 0 10 -262144 -1 -1 1
1;
#X obj 360 569 select 1;
#X obj 49 175 gemhead;
#X obj 53 252 translateXYZ;
#X floatatom 45 677 5 0 0 0 - - -;
#X floatatom 135 678 5 0 0 0 - - -;
#X msg 134 638 2.75;
#X msg 46 640 -2.75;
#X obj 390 198 r xTopLeft;
#X obj 546 211 r yTopLeft;
#X obj 81 201 r xTopLeft;
#X obj 157 201 r yTopLeft;
#X obj 45 700 s xTopLeft;
#X obj 130 701 s yTopLeft;
#X obj 52 291 rectangle 0.5 1;
#X obj 57 387 translateXYZ;
#X floatatom 172 360 5 0 0 0 - - -;
#X obj 55 330 separator;
#X obj 57 422 color 0 0 0;
#X obj 53 513 translateXYZ;
#X floatatom 168 486 5 0 0 0 - - -;
#X obj 53 548 color 0 0 0;
#X obj 57 453 circle 0.3;
#X obj 50 573 circle 0.3;
#X msg 174 329 0.5;
#X msg 167 454 -1;
#X obj 550 187 s bTopLeft;
#X obj 265 399 r bTopLeft;
#X obj 405 646 outlet;
#X connect 0 0 1 0;
#X connect 0 1 6 0;
#X connect 0 2 43 0;
#X connect 1 0 2 0;
#X connect 2 0 3 0;
#X connect 3 0 4 0;
#X connect 4 0 5 0;
#X connect 5 0 12 0;
#X connect 6 0 7 0;
#X connect 7 0 8 0;
#X connect 8 0 9 0;
#X connect 9 0 10 0;
#X connect 10 0 11 0;
#X connect 11 0 12 0;
#X connect 11 1 12 1;
#X connect 12 0 13 0;
#X connect 13 0 14 1;
#X connect 14 0 15 0;
#X connect 15 0 18 0;
#X connect 15 1 16 0;
#X connect 17 0 45 0;
#X connect 18 0 17 0;
#X connect 19 0 20 0;
#X connect 20 0 31 0;
#X connect 21 0 29 0;
#X connect 22 0 30 0;
#X connect 23 0 22 0;
#X connect 24 0 21 0;
#X connect 25 0 3 1;
#X connect 26 0 8 1;
#X connect 27 0 20 1;
#X connect 28 0 20 2;
#X connect 31 0 34 0;
#X connect 32 0 35 0;
#X connect 33 0 32 2;
#X connect 34 0 32 0;
#X connect 35 0 39 0;
#X connect 36 0 38 0;
#X connect 37 0 36 2;
#X connect 38 0 40 0;
#X connect 39 0 36 0;
#X connect 41 0 33 0;
#X connect 42 0 37 0;
#X connect 44 0 14 0;
#X restore 760 167 pd topLeft;
#N canvas 0 50 1168 896 topRight 0;
#X obj 445 71 gemmouse 1 1;
#X obj 343 98 * 8;
#X obj 343 122 - 4;
#X obj 343 146 -;
#X obj 343 179 abs;
#X obj 343 203 < 0.2;
#X obj 506 100 * -8;
#X obj 506 124 + 4;
#X obj 506 148 -;
#X obj 506 180 abs;
#X obj 506 204 < 0.2;
#X obj 506 275 trigger b f;
#X obj 445 317 &&;
#X obj 404 362 trigger f f;
#X obj 364 412 spigot;
#X obj 364 446 trigger f f;
#X obj 458 480 tgl 15 0 empty empty empty 17 7 0 10 -262144 -1 -1 0
1;
#X obj 398 516 tgl 15 0 empty empty empty 17 7 0 10 -262144 -1 -1 1
1;
#X obj 364 482 select 1;
#X obj 53 88 gemhead;
#X obj 57 165 translateXYZ;
#X floatatom 49 590 5 0 0 0 - - -;
#X floatatom 139 591 5 0 0 0 - - -;
#X msg 138 551 2.75;
#X obj 56 204 rectangle 0.5 1;
#X obj 61 300 translateXYZ;
#X floatatom 176 273 5 0 0 0 - - -;
#X obj 59 243 separator;
#X obj 61 335 color 0 0 0;
#X obj 57 426 translateXYZ;
#X floatatom 172 399 5 0 0 0 - - -;
#X obj 57 461 color 0 0 0;
#X obj 61 366 circle 0.3;
#X obj 54 486 circle 0.3;
#X msg 178 242 0.5;
#X msg 171 367 -1;
#X msg 50 553 2.75;
#X obj 49 613 s xTopRight;
#X obj 134 614 s yTopRight;
#X obj 85 114 r xTopRight;
#X obj 168 114 r yTopRight;
#X obj 394 111 r xTopRight;
#X obj 554 100 s bTopRight;
#X obj 550 124 r yTopRight;
#X obj 269 312 r bTopRight;
#X obj 395 553 outlet;
#X connect 0 0 1 0;
#X connect 0 1 6 0;
#X connect 0 2 42 0;
#X connect 1 0 2 0;
#X connect 2 0 3 0;
#X connect 3 0 4 0;
#X connect 4 0 5 0;
#X connect 5 0 12 0;
#X connect 6 0 7 0;
#X connect 7 0 8 0;
#X connect 8 0 9 0;
#X connect 9 0 10 0;
#X connect 10 0 11 0;
#X connect 11 0 12 0;
#X connect 11 1 12 1;
#X connect 12 0 13 0;
#X connect 13 0 14 1;
#X connect 14 0 15 0;
#X connect 15 0 18 0;
#X connect 15 1 16 0;
#X connect 17 0 45 0;
#X connect 18 0 17 0;
#X connect 19 0 20 0;
#X connect 20 0 24 0;
#X connect 21 0 37 0;
#X connect 22 0 38 0;
#X connect 23 0 22 0;
#X connect 24 0 27 0;
#X connect 25 0 28 0;
#X connect 26 0 25 2;
#X connect 27 0 25 0;
#X connect 28 0 32 0;
#X connect 29 0 31 0;
#X connect 30 0 29 2;
#X connect 31 0 33 0;
#X connect 32 0 29 0;
#X connect 34 0 26 0;
#X connect 35 0 30 0;
#X connect 36 0 21 0;
#X connect 39 0 20 1;
#X connect 40 0 20 2;
#X connect 41 0 3 1;
#X connect 43 0 8 1;
#X connect 44 0 14 0;
#X restore 861 169 pd topRight;
#X connect 1 0 5 0;
#X connect 2 0 1 0;
#X connect 3 0 2 0;
#X connect 4 0 3 0;
#X connect 5 0 14 0;
#X connect 5 0 16 0;
#X connect 6 0 27 0;
#X connect 7 0 8 0;
#X connect 7 0 8 1;
#X connect 7 0 54 0;
#X connect 9 0 6 0;
#X connect 10 0 9 0;
#X connect 11 0 18 0;
#X connect 11 0 40 0;
#X connect 12 0 10 0;
#X connect 13 0 12 1;
#X connect 15 0 17 0;
#X connect 16 0 15 0;
#X connect 16 0 22 0;
#X connect 18 0 12 0;
#X connect 19 0 9 0;
#X connect 20 0 28 0;
#X connect 21 0 12 2;
#X connect 22 0 23 0;
#X connect 24 0 28 0;
#X connect 25 0 92 0;
#X connect 26 0 25 0;
#X connect 27 0 7 0;
#X connect 28 0 9 0;
#X connect 29 0 21 0;
#X connect 30 0 49 0;
#X connect 31 0 33 0;
#X connect 31 0 33 1;
#X connect 31 0 58 0;
#X connect 32 0 84 0;
#X connect 34 0 30 0;
#X connect 35 0 34 0;
#X connect 36 0 35 0;
#X connect 37 0 36 1;
#X connect 38 0 48 1;
#X connect 38 0 29 1;
#X connect 39 0 40 1;
#X connect 39 0 48 0;
#X connect 39 0 18 1;
#X connect 39 0 29 0;
#X connect 40 0 36 0;
#X connect 41 0 34 0;
#X connect 42 0 47 0;
#X connect 43 0 36 2;
#X connect 44 0 47 0;
#X connect 45 0 90 0;
#X connect 46 0 45 0;
#X connect 47 0 34 0;
#X connect 48 0 43 0;
#X connect 49 0 31 0;
#X connect 50 0 32 0;
#X connect 51 0 52 0;
#X connect 52 0 85 0;
#X connect 55 0 56 0;
#X connect 56 0 57 0;
#X connect 57 0 53 0;
#X connect 60 0 61 0;
#X connect 61 0 59 0;
#X connect 62 0 60 0;
#X connect 64 0 63 0;
#X connect 65 0 81 0;
#X connect 66 0 68 0;
#X connect 67 0 66 0;
#X connect 68 0 70 0;
#X connect 70 0 75 0;
#X connect 70 1 71 0;
#X connect 71 0 72 0;
#X connect 71 1 73 0;
#X connect 71 2 74 0;
#X connect 75 0 78 0;
#X connect 76 0 77 0;
#X connect 77 0 70 0;
#X connect 79 0 63 0;
#X connect 80 0 63 0;
#X connect 81 0 70 0;
#X connect 82 0 83 0;
#X connect 82 0 94 0;
#X connect 83 0 88 0;
#X connect 86 0 7 1;
#X connect 87 0 31 1;
#X connect 89 0 25 0;
#X connect 91 0 49 1;
#X connect 93 0 27 1;
#X connect 94 0 51 0;
#X connect 95 0 11 0;
#X connect 96 0 11 0;
#X connect 97 0 11 0;
#X connect 98 0 11 0;
#X connect 99 0 11 0;
#X connect 100 0 11 0;
