#N canvas 186 25 1254 791 12;
#X declare -lib Gem;
#N canvas 0 22 450 278 (subpatch) 0;
#X array audioData 1.39988e+06 float 2;
#X coords 0 1 1.39988e+06 -1 200 140 1;
#X restore 309 73 graph;
#X obj 62 111 soundfiler;
#X msg 63 78 read -resize \$1 audioData;
#X obj 63 46 openpanel;
#X obj 64 9 bng 15 250 50 0 empty empty empty 17 7 0 10 -262144 -1
-1;
#X floatatom 60 160 8 0 0 0 - - -;
#X obj 717 265 tabread4~ audioData;
#X obj 759 360 *~;
#X obj 803 396 dac~;
#X obj 717 238 vline~;
#X msg 717 207 \$1 \, \$2 \$3;
#X obj 681 40 bng 15 250 50 0 empty empty empty 17 7 0 10 -262144 -1
-1;
#X obj 718 175 pack f f f;
#X obj 762 138 r end;
#X obj 69 199 s end;
#X obj 292 238 hsl 200 15 0 1.39988e+06 0 0 empty empty empty -2 -8
0 10 -204786 -1 -1 2100 1;
#X msg 147 192 range 0 \$1;
#X obj 291 265 s start;
#X obj 717 127 f;
#X msg 800 212 stop;
#X obj 855 187 r start;
#X floatatom 818 133 8 0 0 0 - - -;
#X obj 295 293 hsl 200 15 0 1.39988e+06 0 0 empty empty empty -2 -8
0 10 -261234 -1 -1 17200 1;
#X obj 293 317 s end;
#X obj 921 185 r end;
#X floatatom 286 383 5 0 0 0 - - -;
#X obj 343 382 hsl 128 15 100 10000 1 0 empty empty LP_Cutoff -2 -8
0 10 -260097 -1 -1 0 1;
#X obj 701 321 lop~ 1000;
#X msg 851 215 \$1 90;
#X obj 771 89 expr abs($f2 - $f1) / 43.1;
#X obj 936 258 tabread4~ audioData;
#X obj 885 355 *~;
#X floatatom 236 412 5 0 1 0 - - -;
#X obj 861 400 dac~;
#X obj 977 219 vline~;
#X msg 977 179 \$1 \, \$2 \$3;
#X obj 978 147 pack f f f;
#X obj 1022 110 r end;
#X obj 974 8 r end;
#X obj 796 14 r start;
#X obj 977 99 f;
#X msg 1060 184 stop;
#X obj 1115 159 r start;
#X floatatom 1078 105 8 0 0 0 - - -;
#X obj 1181 157 r end;
#X floatatom 283 357 5 0 0 0 - - -;
#X obj 342 347 hsl 128 15 100 10000 1 0 empty empty HP_Cutoff -2 -8
0 10 -257985 -1 -1 0 1;
#X msg 1111 187 \$1 90;
#X obj 1055 63 expr abs($f2 - $f1) / 43.1;
#X obj 864 305 hip~ 1000;
#X obj 296 414 hsl 128 15 0 1 0 0 empty empty empty -2 -8 0 10 -4032
-1 -1 2900 1;
#X obj 296 443 hsl 128 15 0 1 0 0 empty empty empty -2 -8 0 10 -4032
-1 -1 2900 1;
#X floatatom 236 441 5 0 1 0 - - -;
#X obj 530 253 vu 15 120 empty empty -1 -8 0 10 -66577 -1 1 0;
#X obj 716 404 s~ toVU1;
#X obj 527 128 r~ toVU1;
#X obj 526 168 env~;
#X obj 526 204 - 100;
#X obj 954 377 s~ toVU2;
#X obj 600 253 vu 15 120 empty empty -1 -8 0 10 -66577 -1 1 0;
#X obj 596 168 env~;
#X obj 596 204 - 100;
#X obj 597 128 r~ toVU2;
#X obj 731 680 gemwin;
#X obj 786 659 tgl 15 0 empty empty empty 17 7 0 10 -262144 -1 -1 0
1;
#X obj 754 443 tgl 15 0 empty empty empty 17 7 0 10 -262144 -1 -1 0
1;
#X obj 877 463 openpanel;
#X obj 892 439 bng 15 250 50 0 empty empty empty 17 7 0 10 -262144
-1 -1;
#X msg 880 502 open \$1;
#X obj 162 18 declare -lib Gem;
#X obj 842 535 pix_film;
#X obj 870 575 unpack f f f;
#X floatatom 871 615 5 0 0 0 - - -;
#X floatatom 920 614 5 0 0 0 - - -;
#X floatatom 969 614 5 0 0 0 - - -;
#X obj 837 655 pix_texture;
#X obj 955 479 tgl 15 0 empty empty empty 17 7 0 10 -262144 -1 -1 0
1;
#X msg 953 507 auto \$1;
#X obj 834 693 rectangle 6 4;
#X msg 733 606 create;
#X msg 750 632 destroy;
#X obj 792 478 gemhead;
#X obj 294 479 bng 20 250 50 0 empty empty EXTRA_BASS 25 10 0 10 -258113
-1 -1;
#X msg 208 500 32;
#X obj 186 404 s v2;
#X obj 188 437 s v1;
#X obj 807 333 r v1;
#X obj 935 329 r v2;
#X obj 192 471 s e1;
#X obj 231 358 r e1;
#X obj 234 333 s h;
#X obj 951 285 r h;
#X obj 235 386 s lp;
#X obj 791 297 r lp;
#X msg 245 471 1;
#X connect 1 0 5 0;
#X connect 2 0 1 0;
#X connect 3 0 2 0;
#X connect 4 0 3 0;
#X connect 5 0 14 0;
#X connect 5 0 16 0;
#X connect 6 0 27 0;
#X connect 7 0 8 0;
#X connect 7 0 8 1;
#X connect 7 0 54 0;
#X connect 9 0 6 0;
#X connect 10 0 9 0;
#X connect 11 0 18 0;
#X connect 11 0 40 0;
#X connect 12 0 10 0;
#X connect 13 0 12 1;
#X connect 15 0 17 0;
#X connect 16 0 15 0;
#X connect 16 0 22 0;
#X connect 18 0 12 0;
#X connect 19 0 9 0;
#X connect 20 0 28 0;
#X connect 21 0 12 2;
#X connect 22 0 23 0;
#X connect 24 0 28 0;
#X connect 25 0 92 0;
#X connect 26 0 25 0;
#X connect 27 0 7 0;
#X connect 28 0 9 0;
#X connect 29 0 21 0;
#X connect 30 0 49 0;
#X connect 31 0 33 0;
#X connect 31 0 33 1;
#X connect 31 0 58 0;
#X connect 32 0 84 0;
#X connect 34 0 30 0;
#X connect 35 0 34 0;
#X connect 36 0 35 0;
#X connect 37 0 36 1;
#X connect 38 0 48 1;
#X connect 38 0 29 1;
#X connect 39 0 40 1;
#X connect 39 0 48 0;
#X connect 39 0 18 1;
#X connect 39 0 29 0;
#X connect 40 0 36 0;
#X connect 41 0 34 0;
#X connect 42 0 47 0;
#X connect 43 0 36 2;
#X connect 44 0 47 0;
#X connect 45 0 90 0;
#X connect 46 0 45 0;
#X connect 47 0 34 0;
#X connect 48 0 43 0;
#X connect 49 0 31 0;
#X connect 50 0 32 0;
#X connect 51 0 52 0;
#X connect 52 0 85 0;
#X connect 55 0 56 0;
#X connect 56 0 57 0;
#X connect 57 0 53 0;
#X connect 60 0 61 0;
#X connect 61 0 59 0;
#X connect 62 0 60 0;
#X connect 64 0 63 0;
#X connect 65 0 81 0;
#X connect 66 0 68 0;
#X connect 67 0 66 0;
#X connect 68 0 70 0;
#X connect 70 0 75 0;
#X connect 70 1 71 0;
#X connect 71 0 72 0;
#X connect 71 1 73 0;
#X connect 71 2 74 0;
#X connect 75 0 78 0;
#X connect 76 0 77 0;
#X connect 77 0 70 0;
#X connect 79 0 63 0;
#X connect 80 0 63 0;
#X connect 81 0 70 0;
#X connect 82 0 83 0;
#X connect 82 0 94 0;
#X connect 83 0 88 0;
#X connect 86 0 7 1;
#X connect 87 0 31 1;
#X connect 89 0 25 0;
#X connect 91 0 49 1;
#X connect 93 0 27 1;
#X connect 94 0 51 0;
