#N canvas 346 143 926 626 12;
#N canvas 0 22 450 278 (subpatch) 0;
#X array audioData 1.39988e+06 float 2;
#X coords 0 1 1.39988e+06 -1 200 140 1;
#X restore 309 73 graph;
#X obj 62 111 soundfiler;
#X msg 63 78 read -resize \$1 audioData;
#X obj 63 46 openpanel;
#X obj 64 9 bng 15 250 50 0 empty empty empty 17 7 0 10 -262144 -1
-1;
#X floatatom 60 160 8 0 0 0 - - -;
#X obj 563 258 tabread4~ audioData;
#X obj 562 315 *~;
#X floatatom 594 287 5 0 1 0 - - -;
#X obj 559 359 dac~;
#X obj 563 224 vline~;
#X msg 563 184 \$1 \, \$2 \$3;
#X obj 556 22 bng 15 250 50 0 empty empty empty 17 7 0 10 -262144 -1
-1;
#X obj 564 152 pack f f f;
#X obj 608 115 r end;
#X obj 69 199 s end;
#X obj 676 41 r end;
#X msg 559 73 0;
#X obj 683 89 / 44.1;
#X connect 1 0 5 0;
#X connect 2 0 1 0;
#X connect 3 0 2 0;
#X connect 4 0 3 0;
#X connect 5 0 15 0;
#X connect 6 0 7 0;
#X connect 7 0 9 0;
#X connect 7 0 9 1;
#X connect 8 0 7 1;
#X connect 10 0 6 0;
#X connect 11 0 10 0;
#X connect 12 0 17 0;
#X connect 13 0 11 0;
#X connect 14 0 13 1;
#X connect 16 0 18 0;
#X connect 17 0 13 0;
#X connect 18 0 13 2;
