#N canvas 945 0 1755 1528 12;
#X declare -lib Gem;
#X obj 13 12 declare -lib Gem;
#X obj 31 57 tgl 15 0 empty empty empty 17 7 0 10 -262144 -1 -1 0 1
;
#X msg 77 55 create;
#X msg 155 56 destroy;
#X obj 77 122 gemwin;
#X obj 126 1065 translateXYZ;
#X floatatom 154 1032 5 0 0 0 - - -;
#X floatatom 210 1029 5 0 0 0 - - -;
#X obj 126 971 gemhead;
#X text 126 947 Left Mid Speaker;
#X obj 124 1299 translateXYZ;
#X floatatom 152 1264 5 0 0 0 - - -;
#X floatatom 208 1261 5 0 0 0 - - -;
#X obj 124 1205 gemhead;
#X text 124 1181 Left Mid Speaker;
#X obj 347 64 gemmouse 1 1;
#X obj 305 92 * 8;
#X obj 305 116 - 4;
#X obj 337 117 r x;
#X obj 305 140 -;
#X obj 305 173 abs;
#X obj 305 197 < 0.2;
#X obj 379 93 * -8;
#X obj 379 117 + 4;
#X obj 379 141 -;
#X obj 379 173 abs;
#X obj 379 197 < 0.2;
#X obj 427 93 s b;
#X obj 379 268 trigger b f;
#X obj 305 310 &&;
#X obj 266 311 r b;
#X obj 306 355 trigger f f;
#X obj 266 405 spigot;
#X obj 266 439 trigger f f;
#X obj 360 473 tgl 15 0 empty empty empty 17 7 0 10 -262144 -1 -1 0
1;
#X obj 423 117 r y;
#X obj 275 553 osc~ 150;
#X obj 275 612 *~;
#X obj 275 654 *~ 0.1;
#X obj 275 702 dac~;
#X msg 345 527 \$1 100;
#X obj 345 569 line~;
#X obj 300 509 tgl 15 0 empty empty empty 17 7 0 10 -262144 -1 -1 0
1;
#X obj 266 475 select 1;
#X obj 49 175 gemhead;
#X obj 53 252 translateXYZ;
#X obj 92 213 r x;
#X obj 128 213 r y;
#X floatatom 49 367 5 0 0 0 - - -;
#X floatatom 109 368 5 0 0 0 - - -;
#X obj 49 390 s x;
#X obj 109 391 s y;
#X obj 53 298 square;
#X msg 108 328 2.75;
#X text 310 36 Top Left Speaker;
#X obj 125 1108 square;
#X msg 152 1002 -2.75;
#X obj 124 1333 square;
#X msg 151 1231 -2.75;
#X msg 214 1228 -2.75;
#X obj 452 843 translateXYZ;
#X floatatom 480 810 5 0 0 0 - - -;
#X floatatom 536 807 5 0 0 0 - - -;
#X obj 452 749 gemhead;
#X obj 450 1077 translateXYZ;
#X floatatom 478 1042 5 0 0 0 - - -;
#X floatatom 534 1039 5 0 0 0 - - -;
#X obj 450 983 gemhead;
#X obj 451 886 square;
#X obj 450 1111 square;
#X text 452 725 Right Top Speaker;
#X msg 478 780 2.75;
#X text 450 959 Right Mid Speaker;
#X obj 451 1270 translateXYZ;
#X floatatom 479 1235 5 0 0 0 - - -;
#X floatatom 535 1232 5 0 0 0 - - -;
#X obj 451 1176 gemhead;
#X obj 451 1304 square;
#X msg 541 1199 -2.75;
#X text 451 1152 Right Mid Speaker;
#X msg 534 772 2.75;
#X msg 477 1009 2.75;
#X msg 478 1202 2.75;
#X msg 50 330 -2.75;
#X connect 1 0 4 0;
#X connect 2 0 4 0;
#X connect 3 0 4 0;
#X connect 5 0 55 0;
#X connect 6 0 5 1;
#X connect 7 0 5 2;
#X connect 8 0 5 0;
#X connect 10 0 57 0;
#X connect 11 0 10 1;
#X connect 12 0 10 2;
#X connect 13 0 10 0;
#X connect 15 0 16 0;
#X connect 15 1 22 0;
#X connect 15 2 27 0;
#X connect 16 0 17 0;
#X connect 17 0 19 0;
#X connect 18 0 19 1;
#X connect 19 0 20 0;
#X connect 20 0 21 0;
#X connect 21 0 29 0;
#X connect 22 0 23 0;
#X connect 23 0 24 0;
#X connect 24 0 25 0;
#X connect 25 0 26 0;
#X connect 26 0 28 0;
#X connect 28 0 29 0;
#X connect 28 1 29 1;
#X connect 29 0 31 0;
#X connect 30 0 32 0;
#X connect 31 0 32 1;
#X connect 32 0 33 0;
#X connect 33 0 43 0;
#X connect 33 1 34 0;
#X connect 35 0 24 1;
#X connect 36 0 37 0;
#X connect 37 0 38 0;
#X connect 38 0 39 0;
#X connect 38 0 39 1;
#X connect 40 0 41 0;
#X connect 41 0 37 1;
#X connect 42 0 40 0;
#X connect 43 0 42 0;
#X connect 44 0 45 0;
#X connect 45 0 52 0;
#X connect 46 0 45 1;
#X connect 47 0 45 2;
#X connect 48 0 50 0;
#X connect 49 0 51 0;
#X connect 53 0 49 0;
#X connect 56 0 6 0;
#X connect 58 0 11 0;
#X connect 59 0 12 0;
#X connect 60 0 68 0;
#X connect 61 0 60 1;
#X connect 62 0 60 2;
#X connect 63 0 60 0;
#X connect 64 0 69 0;
#X connect 65 0 64 1;
#X connect 66 0 64 2;
#X connect 67 0 64 0;
#X connect 71 0 61 0;
#X connect 73 0 77 0;
#X connect 74 0 73 1;
#X connect 75 0 73 2;
#X connect 76 0 73 0;
#X connect 78 0 75 0;
#X connect 80 0 62 0;
#X connect 81 0 65 0;
#X connect 82 0 74 0;
#X connect 83 0 48 0;
