#N canvas 1087 80 1584 1418 12;
#X declare -lib Gem;
#X obj 13 12 declare -lib Gem;
#X obj 31 57 tgl 15 0 empty empty empty 17 7 0 10 -262144 -1 -1 0 1
;
#X msg 77 55 create;
#X msg 155 56 destroy;
#X obj 77 122 gemwin;
#X obj 441 158 gemmouse 1 1;
#X obj 339 185 * 8;
#X obj 339 209 - 4;
#X obj 339 233 -;
#X obj 339 266 abs;
#X obj 339 290 < 0.2;
#X obj 502 187 * -8;
#X obj 502 211 + 4;
#X obj 502 235 -;
#X obj 502 267 abs;
#X obj 502 291 < 0.2;
#X obj 502 362 trigger b f;
#X obj 441 404 &&;
#X obj 400 449 trigger f f;
#X obj 360 499 spigot;
#X obj 360 533 trigger f f;
#X obj 454 567 tgl 15 0 empty empty empty 17 7 0 10 -262144 -1 -1 0
1;
#X obj 540 612 osc~ 150;
#X obj 540 671 *~;
#X obj 540 713 *~ 0.1;
#X obj 540 761 dac~;
#X msg 610 586 \$1 100;
#X obj 610 628 line~;
#X obj 394 603 tgl 15 0 empty empty empty 17 7 0 10 -262144 -1 -1 0
1;
#X obj 360 569 select 1;
#X obj 49 175 gemhead;
#X obj 53 252 translateXYZ;
#X floatatom 45 677 5 0 0 0 - - -;
#X floatatom 135 678 5 0 0 0 - - -;
#X msg 134 638 2.75;
#X text 404 130 Top Left Speaker;
#X msg 46 640 -2.75;
#X obj 390 198 r xTopLeft;
#X obj 546 211 r yTopLeft;
#X obj 81 201 r xTopLeft;
#X obj 157 201 r yTopLeft;
#X obj 45 700 s xTopLeft;
#X obj 130 701 s yTopLeft;
#X obj 52 291 rectangle 0.5 1;
#X obj 57 387 translateXYZ;
#X floatatom 172 360 5 0 0 0 - - -;
#X obj 55 330 separator;
#X obj 57 422 color 0 0 0;
#X obj 53 513 translateXYZ;
#X floatatom 168 486 5 0 0 0 - - -;
#X obj 53 548 color 0 0 0;
#X obj 57 453 circle 0.3;
#X obj 50 573 circle 0.3;
#X msg 174 329 0.5;
#X msg 167 454 -1;
#X obj 550 187 s bTopLeft;
#X obj 265 399 r bTopLeft;
#X obj 1147 111 gemmouse 1 1;
#X obj 1045 138 * 8;
#X obj 1045 162 - 4;
#X obj 1045 186 -;
#X obj 1045 219 abs;
#X obj 1045 243 < 0.2;
#X obj 1208 140 * -8;
#X obj 1208 164 + 4;
#X obj 1208 188 -;
#X obj 1208 220 abs;
#X obj 1208 244 < 0.2;
#X obj 1208 315 trigger b f;
#X obj 1147 357 &&;
#X obj 1106 402 trigger f f;
#X obj 1066 452 spigot;
#X obj 1066 486 trigger f f;
#X obj 1160 520 tgl 15 0 empty empty empty 17 7 0 10 -262144 -1 -1
0 1;
#X obj 1075 600 osc~ 150;
#X obj 1075 659 *~;
#X obj 1075 701 *~ 0.1;
#X obj 1075 749 dac~;
#X msg 1145 574 \$1 100;
#X obj 1145 616 line~;
#X obj 1100 556 tgl 15 0 empty empty empty 17 7 0 10 -262144 -1 -1
0 1;
#X obj 1066 522 select 1;
#X obj 755 128 gemhead;
#X obj 759 205 translateXYZ;
#X obj 758 244 rectangle 0.5 1;
#X obj 763 340 translateXYZ;
#X floatatom 878 313 5 0 0 0 - - -;
#X obj 761 283 separator;
#X obj 763 375 color 0 0 0;
#X obj 759 466 translateXYZ;
#X floatatom 874 439 5 0 0 0 - - -;
#X obj 759 501 color 0 0 0;
#X obj 763 406 circle 0.3;
#X obj 756 526 circle 0.3;
#X msg 880 282 0.5;
#X msg 873 407 -1;
#X floatatom 758 667 5 0 0 0 - - -;
#X floatatom 842 663 5 0 0 0 - - -;
#X obj 758 690 s xMidLeft;
#X obj 843 691 s yMidLeft;
#X obj 787 154 r xMidLeft;
#X obj 863 154 r yMidLeft;
#X obj 1096 151 r xMidLeft;
#X obj 1256 140 s bMidLeft;
#X obj 971 352 r bMidLeft;
#X obj 1252 164 r yMidLeft;
#X obj 1804 101 gemmouse 1 1;
#X obj 1702 128 * 8;
#X obj 1702 152 - 4;
#X obj 1702 176 -;
#X obj 1702 209 abs;
#X obj 1702 233 < 0.2;
#X obj 1865 130 * -8;
#X obj 1865 154 + 4;
#X obj 1865 178 -;
#X obj 1865 210 abs;
#X obj 1865 234 < 0.2;
#X obj 1865 305 trigger b f;
#X obj 1804 347 &&;
#X obj 1763 392 trigger f f;
#X obj 1723 442 spigot;
#X obj 1723 476 trigger f f;
#X obj 1817 510 tgl 15 0 empty empty empty 17 7 0 10 -262144 -1 -1
0 1;
#X obj 1732 590 osc~ 150;
#X obj 1732 649 *~;
#X obj 1732 691 *~ 0.1;
#X obj 1732 739 dac~;
#X msg 1802 564 \$1 100;
#X obj 1802 606 line~;
#X obj 1757 546 tgl 15 0 empty empty empty 17 7 0 10 -262144 -1 -1
0 1;
#X obj 1723 512 select 1;
#X obj 1412 118 gemhead;
#X obj 1416 195 translateXYZ;
#X obj 1415 234 rectangle 0.5 1;
#X obj 1420 330 translateXYZ;
#X floatatom 1535 303 5 0 0 0 - - -;
#X obj 1418 273 separator;
#X obj 1420 365 color 0 0 0;
#X obj 1416 456 translateXYZ;
#X floatatom 1531 429 5 0 0 0 - - -;
#X obj 1416 491 color 0 0 0;
#X obj 1420 396 circle 0.3;
#X obj 1413 516 circle 0.3;
#X msg 1537 272 0.5;
#X msg 1530 397 -1;
#X floatatom 1415 657 5 0 0 0 - - -;
#X floatatom 1505 658 5 0 0 0 - - -;
#X msg 1416 620 -2.75;
#X msg 1502 616 -2.74;
#X text 1110 83 Mid Left Speaker;
#X text 1767 73 Bottom Left Speaker;
#X obj 1444 144 r xBotLeft;
#X obj 1520 144 r yBotLeft;
#X obj 1415 680 s xBotLeft;
#X obj 1500 681 s yBotLeft;
#X obj 1753 141 r xBotLeft;
#X obj 1913 130 s bBotLeft;
#X obj 1909 154 r yBotLeft;
#X obj 1628 342 r bBotLeft;
#X obj 453 889 gemmouse 1 1;
#X obj 351 916 * 8;
#X obj 351 940 - 4;
#X obj 351 964 -;
#X obj 351 997 abs;
#X obj 351 1021 < 0.2;
#X obj 514 918 * -8;
#X obj 514 942 + 4;
#X obj 514 966 -;
#X obj 514 998 abs;
#X obj 514 1022 < 0.2;
#X obj 514 1093 trigger b f;
#X obj 453 1135 &&;
#X obj 412 1180 trigger f f;
#X obj 372 1230 spigot;
#X obj 372 1264 trigger f f;
#X obj 466 1298 tgl 15 0 empty empty empty 17 7 0 10 -262144 -1 -1
0 1;
#X obj 381 1378 osc~ 150;
#X obj 381 1437 *~;
#X obj 381 1479 *~ 0.1;
#X obj 381 1527 dac~;
#X msg 451 1352 \$1 100;
#X obj 451 1394 line~;
#X obj 406 1334 tgl 15 0 empty empty empty 17 7 0 10 -262144 -1 -1
0 1;
#X obj 372 1300 select 1;
#X obj 61 906 gemhead;
#X obj 65 983 translateXYZ;
#X floatatom 57 1408 5 0 0 0 - - -;
#X floatatom 147 1409 5 0 0 0 - - -;
#X msg 146 1369 2.75;
#X obj 64 1022 rectangle 0.5 1;
#X obj 69 1118 translateXYZ;
#X floatatom 184 1091 5 0 0 0 - - -;
#X obj 67 1061 separator;
#X obj 69 1153 color 0 0 0;
#X obj 65 1244 translateXYZ;
#X floatatom 180 1217 5 0 0 0 - - -;
#X obj 65 1279 color 0 0 0;
#X obj 69 1184 circle 0.3;
#X obj 62 1304 circle 0.3;
#X msg 186 1060 0.5;
#X msg 179 1185 -1;
#X msg 58 1371 2.75;
#X obj 57 1431 s xTopRight;
#X obj 142 1432 s yTopRight;
#X obj 93 932 r xTopRight;
#X obj 176 932 r yTopRight;
#X obj 402 929 r xTopRight;
#X obj 562 918 s bTopRight;
#X obj 558 942 r yTopRight;
#X obj 277 1130 r bTopRight;
#X obj 1152 852 gemmouse 1 1;
#X obj 1050 879 * 8;
#X obj 1050 903 - 4;
#X obj 1050 927 -;
#X obj 1050 960 abs;
#X obj 1050 984 < 0.2;
#X obj 1213 881 * -8;
#X obj 1213 905 + 4;
#X obj 1213 929 -;
#X obj 1213 961 abs;
#X obj 1213 985 < 0.2;
#X obj 1213 1056 trigger b f;
#X obj 1152 1098 &&;
#X obj 1111 1143 trigger f f;
#X obj 1071 1193 spigot;
#X obj 1071 1227 trigger f f;
#X obj 1165 1261 tgl 15 0 empty empty empty 17 7 0 10 -262144 -1 -1
0 1;
#X obj 1080 1341 osc~ 150;
#X obj 1080 1400 *~;
#X obj 1080 1442 *~ 0.1;
#X obj 1080 1490 dac~;
#X msg 1150 1315 \$1 100;
#X obj 1150 1357 line~;
#X obj 1105 1297 tgl 15 0 empty empty empty 17 7 0 10 -262144 -1 -1
0 1;
#X obj 1071 1263 select 1;
#X obj 760 869 gemhead;
#X obj 764 946 translateXYZ;
#X obj 763 985 rectangle 0.5 1;
#X obj 768 1081 translateXYZ;
#X floatatom 883 1054 5 0 0 0 - - -;
#X obj 766 1024 separator;
#X obj 768 1116 color 0 0 0;
#X obj 764 1207 translateXYZ;
#X floatatom 879 1180 5 0 0 0 - - -;
#X obj 764 1242 color 0 0 0;
#X obj 768 1147 circle 0.3;
#X obj 761 1267 circle 0.3;
#X msg 885 1023 0.5;
#X msg 878 1148 -1;
#X floatatom 763 1408 5 0 0 0 - - -;
#X floatatom 853 1409 5 0 0 0 - - -;
#X text 1115 824 Mid Left Speaker;
#X msg 764 1371 2.75;
#X obj 1868 819 gemmouse 1 1;
#X obj 1766 846 * 8;
#X obj 1766 870 - 4;
#X obj 1766 894 -;
#X obj 1766 927 abs;
#X obj 1766 951 < 0.2;
#X obj 1929 848 * -8;
#X obj 1929 872 + 4;
#X obj 1929 896 -;
#X obj 1929 928 abs;
#X obj 1929 952 < 0.2;
#X obj 1929 1023 trigger b f;
#X obj 1868 1065 &&;
#X obj 1827 1110 trigger f f;
#X obj 1787 1160 spigot;
#X obj 1787 1194 trigger f f;
#X obj 1881 1228 tgl 15 0 empty empty empty 17 7 0 10 -262144 -1 -1
0 1;
#X obj 1796 1308 osc~ 150;
#X obj 1796 1367 *~;
#X obj 1796 1409 *~ 0.1;
#X obj 1796 1457 dac~;
#X msg 1866 1282 \$1 100;
#X obj 1866 1324 line~;
#X obj 1821 1264 tgl 15 0 empty empty empty 17 7 0 10 -262144 -1 -1
0 1;
#X obj 1787 1230 select 1;
#X obj 1476 836 gemhead;
#X obj 1480 913 translateXYZ;
#X obj 1479 952 rectangle 0.5 1;
#X obj 1484 1048 translateXYZ;
#X floatatom 1599 1021 5 0 0 0 - - -;
#X obj 1482 991 separator;
#X obj 1484 1083 color 0 0 0;
#X obj 1480 1174 translateXYZ;
#X floatatom 1595 1147 5 0 0 0 - - -;
#X obj 1480 1209 color 0 0 0;
#X obj 1484 1114 circle 0.3;
#X obj 1477 1234 circle 0.3;
#X msg 1601 990 0.5;
#X msg 1594 1115 -1;
#X floatatom 1479 1375 5 0 0 0 - - -;
#X floatatom 1569 1376 5 0 0 0 - - -;
#X msg 1566 1334 -2.74;
#X text 1831 791 Bottom Left Speaker;
#X msg 759 630 -2.75;
#X obj 792 895 r xMidRight;
#X obj 876 895 r yMidRight;
#X obj 763 1431 s xMidRight;
#X obj 848 1432 s yMidRight;
#X obj 1101 892 r xMidRight;
#X obj 1261 881 s bMidRight;
#X obj 1257 905 r yMidRight;
#X obj 1508 862 r xBotRight;
#X obj 1599 862 r yBotRight;
#X obj 1479 1398 s xBotRight;
#X obj 1564 1399 s yBotRight;
#X obj 1817 859 r xBotRight;
#X obj 1977 848 s bBotRight;
#X obj 1973 872 r yBotRight;
#X obj 1692 1060 r bBotRight;
#X obj 976 1093 r bMidRight;
#X msg 1480 1338 2.75;
#X connect 1 0 4 0;
#X connect 2 0 4 0;
#X connect 3 0 4 0;
#X connect 5 0 6 0;
#X connect 5 1 11 0;
#X connect 5 2 55 0;
#X connect 6 0 7 0;
#X connect 7 0 8 0;
#X connect 8 0 9 0;
#X connect 9 0 10 0;
#X connect 10 0 17 0;
#X connect 11 0 12 0;
#X connect 12 0 13 0;
#X connect 13 0 14 0;
#X connect 14 0 15 0;
#X connect 15 0 16 0;
#X connect 16 0 17 0;
#X connect 16 1 17 1;
#X connect 17 0 18 0;
#X connect 18 0 19 1;
#X connect 19 0 20 0;
#X connect 20 0 29 0;
#X connect 20 1 21 0;
#X connect 22 0 23 0;
#X connect 23 0 24 0;
#X connect 24 0 25 0;
#X connect 24 0 25 1;
#X connect 26 0 27 0;
#X connect 27 0 23 1;
#X connect 28 0 22 0;
#X connect 29 0 28 0;
#X connect 30 0 31 0;
#X connect 31 0 43 0;
#X connect 32 0 41 0;
#X connect 33 0 42 0;
#X connect 34 0 33 0;
#X connect 36 0 32 0;
#X connect 37 0 8 1;
#X connect 38 0 13 1;
#X connect 39 0 31 1;
#X connect 40 0 31 2;
#X connect 43 0 46 0;
#X connect 44 0 47 0;
#X connect 45 0 44 2;
#X connect 46 0 44 0;
#X connect 47 0 51 0;
#X connect 48 0 50 0;
#X connect 49 0 48 2;
#X connect 50 0 52 0;
#X connect 51 0 48 0;
#X connect 53 0 45 0;
#X connect 54 0 49 0;
#X connect 56 0 19 0;
#X connect 57 0 58 0;
#X connect 57 1 63 0;
#X connect 57 2 103 0;
#X connect 58 0 59 0;
#X connect 59 0 60 0;
#X connect 60 0 61 0;
#X connect 61 0 62 0;
#X connect 62 0 69 0;
#X connect 63 0 64 0;
#X connect 64 0 65 0;
#X connect 65 0 66 0;
#X connect 66 0 67 0;
#X connect 67 0 68 0;
#X connect 68 0 69 0;
#X connect 68 1 69 1;
#X connect 69 0 70 0;
#X connect 70 0 71 1;
#X connect 71 0 72 0;
#X connect 72 0 81 0;
#X connect 72 1 73 0;
#X connect 74 0 75 0;
#X connect 75 0 76 0;
#X connect 76 0 77 0;
#X connect 76 0 77 1;
#X connect 78 0 79 0;
#X connect 79 0 75 1;
#X connect 80 0 78 0;
#X connect 81 0 80 0;
#X connect 82 0 83 0;
#X connect 83 0 84 0;
#X connect 84 0 87 0;
#X connect 85 0 88 0;
#X connect 86 0 85 2;
#X connect 87 0 85 0;
#X connect 88 0 92 0;
#X connect 89 0 91 0;
#X connect 90 0 89 2;
#X connect 91 0 93 0;
#X connect 92 0 89 0;
#X connect 94 0 86 0;
#X connect 95 0 90 0;
#X connect 96 0 98 0;
#X connect 97 0 99 0;
#X connect 100 0 83 1;
#X connect 101 0 83 2;
#X connect 102 0 60 1;
#X connect 104 0 71 0;
#X connect 105 0 65 1;
#X connect 106 0 107 0;
#X connect 106 1 112 0;
#X connect 106 2 156 0;
#X connect 107 0 108 0;
#X connect 108 0 109 0;
#X connect 109 0 110 0;
#X connect 110 0 111 0;
#X connect 111 0 118 0;
#X connect 112 0 113 0;
#X connect 113 0 114 0;
#X connect 114 0 115 0;
#X connect 115 0 116 0;
#X connect 116 0 117 0;
#X connect 117 0 118 0;
#X connect 117 1 118 1;
#X connect 118 0 119 0;
#X connect 119 0 120 1;
#X connect 120 0 121 0;
#X connect 121 0 130 0;
#X connect 121 1 122 0;
#X connect 123 0 124 0;
#X connect 124 0 125 0;
#X connect 125 0 126 0;
#X connect 125 0 126 1;
#X connect 127 0 128 0;
#X connect 128 0 124 1;
#X connect 129 0 127 0;
#X connect 130 0 129 0;
#X connect 131 0 132 0;
#X connect 132 0 133 0;
#X connect 133 0 136 0;
#X connect 134 0 137 0;
#X connect 135 0 134 2;
#X connect 136 0 134 0;
#X connect 137 0 141 0;
#X connect 138 0 140 0;
#X connect 139 0 138 2;
#X connect 140 0 142 0;
#X connect 141 0 138 0;
#X connect 143 0 135 0;
#X connect 144 0 139 0;
#X connect 145 0 153 0;
#X connect 146 0 154 0;
#X connect 147 0 145 0;
#X connect 148 0 146 0;
#X connect 151 0 132 1;
#X connect 152 0 132 2;
#X connect 155 0 109 1;
#X connect 157 0 114 1;
#X connect 158 0 120 0;
#X connect 159 0 160 0;
#X connect 159 1 165 0;
#X connect 159 2 207 0;
#X connect 160 0 161 0;
#X connect 161 0 162 0;
#X connect 162 0 163 0;
#X connect 163 0 164 0;
#X connect 164 0 171 0;
#X connect 165 0 166 0;
#X connect 166 0 167 0;
#X connect 167 0 168 0;
#X connect 168 0 169 0;
#X connect 169 0 170 0;
#X connect 170 0 171 0;
#X connect 170 1 171 1;
#X connect 171 0 172 0;
#X connect 172 0 173 1;
#X connect 173 0 174 0;
#X connect 174 0 183 0;
#X connect 174 1 175 0;
#X connect 176 0 177 0;
#X connect 177 0 178 0;
#X connect 178 0 179 0;
#X connect 178 0 179 1;
#X connect 180 0 181 0;
#X connect 181 0 177 1;
#X connect 182 0 180 0;
#X connect 183 0 182 0;
#X connect 184 0 185 0;
#X connect 185 0 189 0;
#X connect 186 0 202 0;
#X connect 187 0 203 0;
#X connect 188 0 187 0;
#X connect 189 0 192 0;
#X connect 190 0 193 0;
#X connect 191 0 190 2;
#X connect 192 0 190 0;
#X connect 193 0 197 0;
#X connect 194 0 196 0;
#X connect 195 0 194 2;
#X connect 196 0 198 0;
#X connect 197 0 194 0;
#X connect 199 0 191 0;
#X connect 200 0 195 0;
#X connect 201 0 186 0;
#X connect 204 0 185 1;
#X connect 205 0 185 2;
#X connect 206 0 162 1;
#X connect 208 0 167 1;
#X connect 209 0 173 0;
#X connect 210 0 211 0;
#X connect 210 1 216 0;
#X connect 210 2 302 0;
#X connect 211 0 212 0;
#X connect 212 0 213 0;
#X connect 213 0 214 0;
#X connect 214 0 215 0;
#X connect 215 0 222 0;
#X connect 216 0 217 0;
#X connect 217 0 218 0;
#X connect 218 0 219 0;
#X connect 219 0 220 0;
#X connect 220 0 221 0;
#X connect 221 0 222 0;
#X connect 221 1 222 1;
#X connect 222 0 223 0;
#X connect 223 0 224 1;
#X connect 224 0 225 0;
#X connect 225 0 234 0;
#X connect 225 1 226 0;
#X connect 227 0 228 0;
#X connect 228 0 229 0;
#X connect 229 0 230 0;
#X connect 229 0 230 1;
#X connect 231 0 232 0;
#X connect 232 0 228 1;
#X connect 233 0 231 0;
#X connect 234 0 233 0;
#X connect 235 0 236 0;
#X connect 236 0 237 0;
#X connect 237 0 240 0;
#X connect 238 0 241 0;
#X connect 239 0 238 2;
#X connect 240 0 238 0;
#X connect 241 0 245 0;
#X connect 242 0 244 0;
#X connect 243 0 242 2;
#X connect 244 0 246 0;
#X connect 245 0 242 0;
#X connect 247 0 239 0;
#X connect 248 0 243 0;
#X connect 249 0 299 0;
#X connect 250 0 300 0;
#X connect 252 0 249 0;
#X connect 253 0 254 0;
#X connect 253 1 259 0;
#X connect 253 2 309 0;
#X connect 254 0 255 0;
#X connect 255 0 256 0;
#X connect 256 0 257 0;
#X connect 257 0 258 0;
#X connect 258 0 265 0;
#X connect 259 0 260 0;
#X connect 260 0 261 0;
#X connect 261 0 262 0;
#X connect 262 0 263 0;
#X connect 263 0 264 0;
#X connect 264 0 265 0;
#X connect 264 1 265 1;
#X connect 265 0 266 0;
#X connect 266 0 267 1;
#X connect 267 0 268 0;
#X connect 268 0 277 0;
#X connect 268 1 269 0;
#X connect 270 0 271 0;
#X connect 271 0 272 0;
#X connect 272 0 273 0;
#X connect 272 0 273 1;
#X connect 274 0 275 0;
#X connect 275 0 271 1;
#X connect 276 0 274 0;
#X connect 277 0 276 0;
#X connect 278 0 279 0;
#X connect 279 0 280 0;
#X connect 280 0 283 0;
#X connect 281 0 284 0;
#X connect 282 0 281 2;
#X connect 283 0 281 0;
#X connect 284 0 288 0;
#X connect 285 0 287 0;
#X connect 286 0 285 2;
#X connect 287 0 289 0;
#X connect 288 0 285 0;
#X connect 290 0 282 0;
#X connect 291 0 286 0;
#X connect 292 0 306 0;
#X connect 293 0 307 0;
#X connect 294 0 293 0;
#X connect 296 0 96 0;
#X connect 297 0 236 1;
#X connect 298 0 236 2;
#X connect 301 0 213 1;
#X connect 303 0 218 1;
#X connect 304 0 279 1;
#X connect 305 0 279 2;
#X connect 308 0 256 1;
#X connect 310 0 261 1;
#X connect 311 0 267 0;
#X connect 312 0 224 0;
#X connect 313 0 292 0;
